<svg width="1286" height="1483" viewBox="0 0 1286 1483" fill="none" xmlns="http://www.w3.org/2000/svg">
<path d="M1223.79 342.5L664.788 30L58.2883 364C49.1217 375.333 30.7883 408.3 30.7883 449.5C30.7883 490.7 30.7883 851 30.7883 1026C27.1217 1051.5 34.3883 1111.1 92.7883 1145.5C151.188 1179.9 474.122 1359.83 628.288 1445.5C636.122 1451.17 661.188 1459.1 698.788 1445.5C736.388 1431.9 1047.29 1221.5 1217.29 1118C1230.79 1098.67 1257.39 1049.3 1255.79 1006.5M1194 449.5L664.788 152.5L151.5 425.5" stroke="#7EF1D0" stroke-width="60" stroke-linecap="round" stroke-linejoin="round"/>
<path d="M222 526.232L657.189 273L1095 526.232V931.139L657.189 1198L222 953.561V526.232Z" stroke="#605194" stroke-width="60" stroke-linecap="round" stroke-linejoin="round"/>
<path d="M417 595.567L656.63 442L917 601.489L909.593 827.299L656.63 1001L417 859.276V595.567Z" stroke="#BA80D7" stroke-width="60" stroke-linecap="round" stroke-linejoin="round"/>
<path d="M173.5 1064L655.172 1345L1141 1043" stroke="#669FC7" stroke-width="60" stroke-linecap="round" stroke-linejoin="round"/>
</svg>
